PathFileType	4	(X/Y/Z)	C:\Users\Basilio\Documents\Thesis Gigler\squatting_fais\c3dfiles\054\SLS_front_pre2\markers_experimental.trc
DataRate	CameraRate	NumFrames	NumMarkers	Units	OrigDataRate	OrigDataStartFrame	OrigNumFrames
200.000000	200.000000	4	61	mm	200.000000	182	1461
Frame#	Time	FHD			LBHD			RBHD			C7			T10			CLAV			LSHO			LUUPA			LMUPA			LDUPA			LLEP			LMEP			LRAD			LUL			LRFIN			RSHO			RUPA1			RMUPA			RDUPA			RLEP			RMEP			RRAD			RUL			RUFIN			LASI			RASI			USACR			LSACR			RSACR			LTHI1			LTHI2			LTHI3			LTHI4			LLFC			LMFC			LTIB1			LTIB2			LTIB3			LTIB4			LLMAL			LMMAL			LHEE			LMT1			LMT2			LMT5			RTHI			RTHI2			RTHI3			RTHI4			RLFC			RMFC			RTIB1			RTIB2			RTIB3			RTIB4			RLMAL			RMMAL			RHEE			RMT1			RMT2			RMT5			
		X1	Y1	Z1	X2	Y2	Z2	X3	Y3	Z3	X4	Y4	Z4	X5	Y5	Z5	X6	Y6	Z6	X7	Y7	Z7	X8	Y8	Z8	X9	Y9	Z9	X10	Y10	Z10	X11	Y11	Z11	X12	Y12	Z12	X13	Y13	Z13	X14	Y14	Z14	X15	Y15	Z15	X16	Y16	Z16	X17	Y17	Z17	X18	Y18	Z18	X19	Y19	Z19	X20	Y20	Z20	X21	Y21	Z21	X22	Y22	Z22	X23	Y23	Z23	X24	Y24	Z24	X25	Y25	Z25	X26	Y26	Z26	X27	Y27	Z27	X28	Y28	Z28	X29	Y29	Z29	X30	Y30	Z30	X31	Y31	Z31	X32	Y32	Z32	X33	Y33	Z33	X34	Y34	Z34	X35	Y35	Z35	X36	Y36	Z36	X37	Y37	Z37	X38	Y38	Z38	X39	Y39	Z39	X40	Y40	Z40	X41	Y41	Z41	X42	Y42	Z42	X43	Y43	Z43	X44	Y44	Z44	X45	Y45	Z45	X46	Y46	Z46	X47	Y47	Z47	X48	Y48	Z48	X49	Y49	Z49	X50	Y50	Z50	X51	Y51	Z51	X52	Y52	Z52	X53	Y53	Z53	X54	Y54	Z54	X55	Y55	Z55	X56	Y56	Z56	X57	Y57	Z57	X58	Y58	Z58	X59	Y59	Z59	X60	Y60	Z60	X61	Y61	Z61	

183	0.91	-229.5272216796876	1788.664184570313	-1078.341674804688	-388.950408935547	1735.326293945313	-1153.517822265625	-410.6243896484376	1736.228881835938	-1014.643859863281	-434.9528808593751	1559.161499023438	-1070.283569335938	-432.8128051757814	1226.008422851563	-1063.671875	-286.8679809570313	1511.7529296875	-1072.993041992188	-362.0683898925782	1553.094848632813	-1229.189575195313	-221.0644836425782	1420.577392578125	-1354.753173828125	-185.4355163574219	1453.539428710938	-1345.17041015625	-153.2897338867188	1407.749633789063	-1367.297729492188	-96.46627044677737	1408.680541992188	-1368.467651367188	-97.06708526611331	1344.97265625	-1320.834838867188	165.5730133056641	1417.382080078125	-1298.913940429688	173.8965759277344	1383.064331054688	-1368.838745117188	255.4003906250001	1428.784301757813	-1318.8837890625	-353.4640502929688	1557.696899414063	-920.0787353515627	-205.8088836669922	1431.379638671875	-789.6524658203127	-168.3857727050782	1460.531982421875	-798.2632446289065	-139.5088043212891	1411.286865234375	-775.5966796875002	-95.96760559082033	1403.473876953125	-776.0332031250002	-100.4877395629883	1348.290649414063	-827.6368408203127	174.4429779052735	1442.29345703125	-864.3659667968752	172.6446533203125	1400.226440429688	-796.8823242187502	253.153060913086	1460.724731445313	-845.4485473632815	-220.0757598876954	1064.574584960938	-1160.107666015625	-242.4938964843751	1093.050537109375	-910.3281860351565	-424.8587036132814	1138.253784179688	-1053.617553710938	-425.5142517089845	1104.1484375	-1077.768188476563	-431.082244873047	1108.21923828125	-1021.322204589844	-297.6231384277344	812.8391113281252	-1220.517822265625	-265.3190002441407	734.9296875000001	-1208.620361328125	-218.0227355957032	740.3146362304689	-1201.70703125	-293.8730163574219	684.1766967773439	-1189.228393554688	-295.9896850585938	530.8417358398439	-1154.887084960938	-269.0177001953126	539.5083618164064	-1019.023193359375	-258.0138549804688	370.8452758789063	-1087.873413085938	-307.2714843750001	319.6073303222657	-1139.929809570313	-268.7675781250001	319.4429016113282	-1115.090942382813	-278.1515502929688	246.4949340820313	-1073.47998046875	-339.5657653808594	112.9079818725586	-1099.012084960938	-308.9250183105469	135.1439208984375	-1009.649658203125	-408.5457763671876	105.1891632080078	-1038.666870117188	-198.7818145751954	56.94247436523439	-1017.658752441406	-190.0345916748047	54.24372482299806	-1066.815063476563	-242.5479431152344	39.47751235961915	-1118.175903320313	-203.7286529541016	797.397644042969	-824.5687255859377	-147.1661071777344	762.8672485351564	-831.1250610351565	-119.0247192382813	776.1113891601565	-840.6331787109377	-142.4840087890625	679.7221069335939	-839.1241455078127	-123.598503112793	587.5681152343751	-839.9173583984377	-87.79740142822267	598.7770385742189	-973.3187255859377	-43.71201324462891	497.8292846679689	-845.9111328125002	-91.9403533935547	409.9404907226564	-809.8594360351565	-46.35131835937501	414.292205810547	-819.6165161132815	-18.92924308776856	369.6753845214844	-843.1619873046877	-27.09107398986817	184.5370025634766	-816.943542480469	10.09963417053223	205.7612915039063	-901.9275512695315	-80.17752075195314	145.0311584472657	-876.8616333007815	141.3935089111328	148.3025970458985	-882.0625000000002	144.9922790527344	154.4062652587891	-834.0899658203127	96.97500610351565	128.6734008789063	-788.961853027344	
184	0.915	-229.5350952148438	1788.696655273438	-1078.478271484375	-388.9978637695314	1735.388549804688	-1153.623901367188	-410.502899169922	1736.235229492188	-1014.685668945313	-434.871551513672	1559.217407226563	-1070.398681640625	-432.8352050781251	1226.06982421875	-1063.864379882813	-286.8941650390626	1511.79296875	-1073.101928710938	-362.0676269531251	1553.1982421875	-1229.241088867188	-220.9682159423829	1420.736083984375	-1354.886352539063	-185.3534393310547	1453.6787109375	-1345.222290039063	-153.1584014892578	1407.924438476563	-1367.356079101563	-96.35149383544925	1408.886840820313	-1368.521484375	-96.85301208496097	1345.281860351563	-1321.034423828125	165.5824127197266	1417.60400390625	-1298.903076171875	173.8592224121094	1383.365844726563	-1368.81103515625	255.5899353027344	1428.98193359375	-1318.916870117188	-353.4992370605469	1557.735229492188	-920.2332153320315	-205.6473083496094	1431.4521484375	-789.893981933594	-168.3011169433594	1460.607788085938	-798.4865722656252	-139.5014343261719	1411.509155273438	-775.839538574219	-95.96882629394533	1403.576904296875	-776.2504882812502	-100.3687057495117	1348.517211914063	-827.8367919921877	174.4918975830078	1442.544677734375	-864.6645507812502	172.656234741211	1400.476318359375	-797.0458984375002	253.1629638671876	1461.01025390625	-845.7288818359377	-220.3150024414063	1064.56884765625	-1160.357543945313	-242.5249023437501	1093.22412109375	-910.5689697265627	-425.0665893554689	1138.269287109375	-1053.711669921875	-425.675018310547	1104.144775390625	-1077.934814453125	-431.1259155273439	1108.238525390625	-1021.461975097656	-298.0649414062501	812.8638916015627	-1220.689331054688	-265.3915405273438	735.0324707031251	-1208.844116210938	-218.2608032226563	740.3377685546876	-1201.906494140625	-294.0853881835938	684.1434936523439	-1189.333862304688	-296.2175903320313	530.8471069335939	-1154.920043945313	-268.9636535644532	539.5697021484376	-1019.189270019531	-258.0837707519532	370.8910827636719	-1087.961669921875	-307.4811401367188	319.6035156250001	-1139.9755859375	-268.9431457519532	319.3633728027344	-1115.187622070313	-278.1351318359376	246.4799499511719	-1073.577026367188	-339.5107421875001	112.8296661376953	-1099.010986328125	-308.8816833496094	135.1385040283203	-1009.672668457031	-408.5466918945314	105.1603393554688	-1038.673461914063	-198.7800292968751	56.95938873291017	-1017.664733886719	-190.1410675048828	54.1916961669922	-1066.782470703125	-242.8663787841797	39.34070587158204	-1117.878051757813	-202.8709259033204	797.8253173828127	-824.8236083984377	-146.4113464355469	763.5599365234376	-831.2167968750002	-118.1760177612305	776.9209594726565	-841.1391601562502	-141.3692321777344	680.3703002929689	-839.5498657226565	-122.4454803466797	588.1678466796876	-840.152282714844	-86.60549926757814	599.7507324218751	-973.7852783203127	-41.85621643066407	499.1480102539064	-846.4197387695315	-89.30956268310548	410.6479797363282	-810.203308105469	-43.8687858581543	415.2396850585939	-820.2493286132815	-15.88101673126221	371.0389099121094	-843.7644653320315	-23.01720046997071	185.7915191650391	-817.449645996094	13.8429708480835	207.2578430175782	-902.5792236328127	-75.95093536376955	145.8968048095703	-877.1121215820315	146.1626281738282	150.6407928466797	-882.7669677734377	149.2058410644532	156.5405731201172	-834.9029541015627	101.642318725586	130.751220703125	-789.7962036132815	
185	0.92	-229.5734100341797	1788.71728515625	-1078.600830078125	-389.1432495117189	1735.428833007813	-1153.655883789063	-410.4351501464845	1736.285522460938	-1014.729675292969	-434.8799743652345	1559.2734375	-1070.478271484375	-432.9346313476564	1226.124755859375	-1063.978149414063	-286.9088134765626	1511.77880859375	-1073.230712890625	-361.7808227539063	1553.118896484375	-1229.276489257813	-220.9411315917969	1420.927856445313	-1355.028198242188	-185.199462890625	1453.844116210938	-1345.287353515625	-153.0497436523438	1408.163208007813	-1367.43310546875	-96.256706237793	1409.022705078125	-1368.529296875	-96.92236328125003	1345.270874023438	-1320.882690429688	165.5835418701172	1417.860961914063	-1298.921630859375	174.0376892089844	1383.66357421875	-1368.815673828125	255.6764373779297	1429.309326171875	-1318.916381835938	-353.5158386230469	1557.730224609375	-920.3255004882815	-205.6110992431641	1431.573364257813	-790.069274902344	-168.3031158447266	1460.669067382813	-798.6040039062502	-139.4988098144532	1411.619506835938	-776.1031494140627	-95.87871551513673	1403.648803710938	-776.4585571289065	-100.1497497558594	1348.923217773438	-828.4048461914065	174.5899963378907	1442.893188476563	-864.978210449219	172.6434020996094	1400.708862304688	-797.2669067382815	253.0951843261719	1461.294677734375	-845.9324951171877	-220.5332641601563	1064.536865234375	-1160.643676757813	-242.5943756103516	1093.28271484375	-910.876159667969	-425.1801147460939	1138.309814453125	-1053.829833984375	-425.8224182128907	1104.147338867188	-1078.038818359375	-431.2466430664064	1108.270874023438	-1021.564819335938	-297.8713684082032	812.667907714844	-1220.838134765625	-265.4631042480469	735.0726318359376	-1209.057861328125	-218.5430755615235	740.3275146484376	-1202.08154296875	-294.2146606445313	684.0641479492189	-1189.486694335938	-296.3712768554688	530.8284912109376	-1155.025756835938	-268.9738769531251	539.5778808593751	-1019.289001464844	-258.1764221191407	370.8446655273438	-1088.170043945313	-307.7077636718751	319.5745239257813	-1140.035034179688	-269.4275207519532	319.3960266113282	-1115.28759765625	-278.1403808593751	246.5164337158204	-1073.709716796875	-339.1988525390626	112.7084121704102	-1099.090576171875	-308.8258972167969	135.1763610839844	-1009.71923828125	-408.5545959472657	105.2033309936524	-1038.6552734375	-198.7899932861329	57.00311660766603	-1017.669799804688	-190.0335998535157	54.25339126586915	-1066.826538085938	-242.893783569336	39.31444931030274	-1117.877563476563	-202.2507324218751	798.267761230469	-824.9271240234377	-145.544418334961	764.2617797851564	-831.3032836914065	-117.5381317138672	777.5813598632815	-841.3039550781252	-140.4173126220703	680.9461059570314	-839.9829711914065	-120.7519607543946	588.8510131835939	-840.572937011719	-85.24940490722658	600.5875244140626	-974.3986816406252	-39.71104812622071	500.0491638183595	-847.119079589844	-86.61486053466798	411.577850341797	-810.6431274414065	-41.15575790405274	416.4983825683595	-820.6743774414065	-13.39489364624024	372.1853637695313	-844.3415527343752	-18.92797660827637	187.0562286376953	-818.058044433594	17.49341583251953	208.6564483642579	-903.2313232421877	-71.95887756347658	146.6549377441407	-877.6619873046877	150.30419921875	152.9682159423828	-883.5844726562502	153.1546325683594	158.8653869628907	-835.7551269531252	105.8608322143555	132.6939239501953	-790.6292724609377	
186	0.925	-229.5952911376954	1788.779663085938	-1078.745483398438	-389.1911926269532	1735.49658203125	-1153.669555664063	-410.376678466797	1736.30419921875	-1014.765869140625	-434.817108154297	1559.330688476563	-1070.590576171875	-432.9418029785157	1226.220825195313	-1064.090087890625	-286.9030151367188	1511.769165039063	-1073.34326171875	-362.0030212402344	1553.357421875	-1229.378784179688	-220.8839721679688	1421.131469726563	-1355.120239257813	-185.1127624511719	1454.026733398438	-1345.290283203125	-152.8854370117188	1408.325805664063	-1367.551025390625	-96.11101531982425	1409.163452148438	-1368.563598632813	-96.83341979980472	1345.424194335938	-1320.84912109375	165.5977172851563	1418.131469726563	-1298.912963867188	174.0926208496094	1383.872680664063	-1368.760986328125	255.6912536621094	1429.619506835938	-1318.905395507813	-353.5307006835938	1557.724975585938	-920.4624023437502	-205.4545135498047	1431.642822265625	-790.3103027343752	-168.2912902832032	1460.716430664063	-798.7247314453127	-139.3628845214844	1411.678100585938	-776.270690917969	-95.75531005859376	1403.681762695313	-776.6873779296877	-100.1586074829102	1348.812255859375	-828.3149414062502	174.5258941650391	1443.198974609375	-865.2637329101565	172.6482849121094	1401.080078125	-797.5188598632815	253.1977539062501	1461.75439453125	-846.3040771484377	-220.7844543457032	1064.526245117188	-1160.920654296875	-242.6529388427735	1093.372924804688	-911.159606933594	-425.3054809570314	1138.338623046875	-1053.972290039063	-425.8853759765626	1104.183959960938	-1078.08251953125	-431.3863830566407	1108.353149414063	-1021.66357421875	-298.7475280761719	812.852478027344	-1221.037841796875	-265.4348754882813	735.0934448242189	-1209.211303710938	-218.8127593994141	740.3392333984376	-1202.361083984375	-294.4847412109376	684.0531005859376	-1189.67626953125	-296.2901916503907	530.7919921875001	-1155.193115234375	-268.9729614257813	539.6146850585939	-1019.441833496094	-258.2568054199219	370.8802490234376	-1088.569702148438	-307.8972778320313	319.5778808593751	-1140.066528320313	-269.7963562011719	319.2642517089844	-1115.35009765625	-278.1953735351563	246.5129699707032	-1073.795043945313	-339.2721557617188	112.7237625122071	-1099.06640625	-308.8059997558594	135.1769561767578	-1009.7216796875	-408.5438842773439	105.1865005493164	-1038.677856445313	-198.7662353515626	57.00042724609376	-1017.665710449219	-190.0448455810547	54.22253417968751	-1066.815673828125	-242.909652709961	39.3076400756836	-1117.8681640625	-201.6015014648438	798.6512451171877	-825.1677246093752	-144.7225494384766	764.9555664062501	-831.8641357421877	-116.8127593994141	778.156188964844	-841.694274902344	-139.1970672607422	681.6083984375001	-840.2738037109377	-119.4519577026367	589.5021972656251	-841.0543212890627	-83.08470153808595	601.4310302734376	-974.647644042969	-37.81015396118165	501.417449951172	-847.6052246093752	-84.09216308593751	412.5125427246095	-810.921813964844	-38.75476837158204	417.4773254394532	-821.2778930664065	-10.40185356140137	373.7296447753907	-844.883972167969	-15.04817390441895	188.4267578125	-818.4965820312502	21.07797050476075	210.1373596191407	-903.7991943359377	-67.88937377929689	147.7303161621094	-878.141540527344	153.987060546875	155.2090911865235	-884.4020996093752	157.1545562744141	161.1869354248047	-836.6616210937502	110.3413848876953	134.7599029541016	-791.446228027344	
